<svg width="24" height="20" viewBox="0 0 24 20" fill="none" xmlns="http://www.w3.org/2000/svg">
<path fill-rule="evenodd" clip-rule="evenodd" d="M3.27273 0H20.7273C22.5298 0 24 1.49746 24 3.33333V16.6667C24 18.5025 22.5298 20 20.7273 20H3.27273C1.47023 20 0 18.5025 0 16.6667V3.33333C0 1.49746 1.47023 0 3.27273 0ZM3.27273 2.22223C2.67523 2.22223 2.18182 2.72477 2.18182 3.33334V13.4649L5.14547 10.3392C5.57939 9.8816 6.30127 9.8878 6.72756 10.3528L9.01357 12.8466L15.8274 5.5224C16.2844 5.03117 17.0628 5.0666 17.475 5.59739L21.8182 11.2007V3.33334C21.8182 2.72477 21.3248 2.22223 20.7273 2.22223H3.27273ZM21.8182 14.7685L16.5449 7.98202L9.80545 15.2262C9.554 15.4965 9.20089 15.6097 8.86437 15.5627C8.61986 15.5316 8.38427 15.4163 8.20295 15.2185L5.91683 12.7247L2.18182 16.6638V16.6667C2.18182 17.2752 2.67523 17.7778 3.27273 17.7778H20.7273C21.3248 17.7778 21.8182 17.2752 21.8182 16.6667V14.7685ZM6.00001 4.44446C5.09608 4.44446 4.36365 5.19046 4.36365 6.11112C4.36365 7.03179 5.09608 7.77779 6.00001 7.77779C6.90394 7.77779 7.63637 7.03179 7.63637 6.11112C7.63637 5.19046 6.90394 4.44446 6.00001 4.44446Z" fill="black"/>
</svg>